<svg width="114" height="13" viewBox="0 0 114 13" fill="none" xmlns="http://www.w3.org/2000/svg">
<path d="M4.78205 12.18C2.12205 12.18 0.722051 10.84 0.722051 9.9C0.722051 9.42 1.04205 9.16 1.50205 9.16C2.74205 9.16 2.10205 11.6 4.78205 11.6C6.06205 11.6 7.06205 10.98 7.06205 9.84C7.06205 6.9 0.942051 8.88 0.942051 4.94C0.942051 3.4 2.50205 2.2 4.70205 2.2C7.18205 2.2 8.60205 3.48 8.60205 4.56C8.60205 4.96 8.28205 5.26 7.88205 5.26C6.74205 5.26 7.24205 2.82 4.78205 2.82C3.62205 2.82 2.72205 3.56 2.72205 4.56C2.72205 7.44 8.82205 5.48 8.82205 9.48C8.82205 10.98 7.26205 12.18 4.78205 12.18ZM23.8417 2.4C24.0217 2.4 24.1217 2.48 24.1217 2.64V2.7C24.1217 3.08 23.5017 3.04 23.2217 3.82L20.4217 11.6C20.3217 11.88 20.2017 12 19.9217 12H19.5417C19.2617 12 19.0817 11.86 19.0017 11.6L16.7417 4.52L14.4617 11.6C14.3817 11.86 14.2217 12 13.9617 12H13.7017C13.4017 12 13.2617 11.86 13.1617 11.6L10.0817 3.82C9.80174 3.06 9.30174 3.06 9.30174 2.7V2.64C9.30174 2.48 9.42174 2.4 9.60174 2.4H12.1217C12.3017 2.4 12.4017 2.5 12.4017 2.64V2.7C12.4017 3.06 11.5617 3.02 11.8417 3.84L14.1217 10.2L16.4817 2.76C16.5417 2.54 16.6217 2.44 16.8217 2.44L17.4817 2.42C17.7017 2.42 17.7617 2.54 17.8217 2.74L20.1217 10.28L22.3417 3.96C22.6417 3.06 21.6217 3.08 21.6217 2.7V2.64C21.6217 2.5 21.7617 2.4 21.9217 2.4H23.8417ZM32.6911 9.18C32.8711 8.9 33.3311 8.96 33.2711 9.34C33.0311 10.54 31.7111 12.2 29.2111 12.2C26.6311 12.2 24.5711 10.24 24.5711 7.12C24.5711 4.3 26.6311 2.2 29.2911 2.2C31.6911 2.2 33.0111 3.78 33.0111 5.16C33.0111 5.8 32.6711 6.14 32.0711 6.34L26.5311 8.16C26.9911 9.88 28.2111 10.92 29.8311 10.92C31.3111 10.92 32.2511 10.14 32.6911 9.18ZM28.9911 2.84C27.3711 2.84 26.3111 4.44 26.3111 6.48C26.3111 6.84 26.3311 7.18 26.3911 7.5L30.8511 5.9C31.1911 5.76 31.3311 5.54 31.3311 5.2C31.3311 4.3 30.3711 2.84 28.9911 2.84ZM42.5935 9.18C42.7735 8.9 43.2335 8.96 43.1735 9.34C42.9335 10.54 41.6135 12.2 39.1135 12.2C36.5335 12.2 34.4735 10.24 34.4735 7.12C34.4735 4.3 36.5335 2.2 39.1935 2.2C41.5935 2.2 42.9135 3.78 42.9135 5.16C42.9135 5.8 42.5735 6.14 41.9735 6.34L36.4335 8.16C36.8935 9.88 38.1135 10.92 39.7335 10.92C41.2135 10.92 42.1535 10.14 42.5935 9.18ZM38.8935 2.84C37.2735 2.84 36.2135 4.44 36.2135 6.48C36.2135 6.84 36.2335 7.18 36.2935 7.5L40.7535 5.9C41.0935 5.76 41.2335 5.54 41.2335 5.2C41.2335 4.3 40.2735 2.84 38.8935 2.84ZM48.0358 12.2C46.4958 12.2 45.4558 11.22 45.4558 9.18V3.2H44.1358C43.9558 3.2 43.8358 3.08 43.8358 2.9V2.7C43.8358 2.52 43.9358 2.4 44.1358 2.4H44.8558C45.8158 2.4 46.2758 1.64 46.3758 0.499999C46.3958 0.24 46.5358 0.0999994 46.7158 0.0999994H46.9158C47.1558 0.0999994 47.2358 0.24 47.2358 0.499999L47.2558 2.4H50.0158C50.1758 2.4 50.3158 2.54 50.3158 2.7V2.9C50.3158 3.08 50.1758 3.2 50.0158 3.2H47.2558V9.2C47.2558 10.3 47.7758 10.88 48.5158 10.88C49.3958 10.88 49.9158 10.36 49.9958 9.68C50.1158 9.38 50.5958 9.4 50.5958 9.76C50.5958 11 49.6358 12.2 48.0358 12.2ZM55.5047 12.18C52.8447 12.18 51.4447 10.84 51.4447 9.9C51.4447 9.42 51.7647 9.16 52.2247 9.16C53.4647 9.16 52.8247 11.6 55.5047 11.6C56.7847 11.6 57.7847 10.98 57.7847 9.84C57.7847 6.9 51.6647 8.88 51.6647 4.94C51.6647 3.4 53.2247 2.2 55.4247 2.2C57.9047 2.2 59.3247 3.48 59.3247 4.56C59.3247 4.96 59.0047 5.26 58.6047 5.26C57.4647 5.26 57.9647 2.82 55.5047 2.82C54.3447 2.82 53.4447 3.56 53.4447 4.56C53.4447 7.44 59.5447 5.48 59.5447 9.48C59.5447 10.98 57.9847 12.18 55.5047 12.18ZM68.9606 9.18C69.1406 8.9 69.6006 8.96 69.5406 9.34C69.3006 10.54 67.9806 12.2 65.4806 12.2C62.9006 12.2 60.8406 10.24 60.8406 7.12C60.8406 4.3 62.9006 2.2 65.5606 2.2C67.9606 2.2 69.2806 3.78 69.2806 5.16C69.2806 5.8 68.9406 6.14 68.3406 6.34L62.8006 8.16C63.2606 9.88 64.4806 10.92 66.1006 10.92C67.5806 10.92 68.5206 10.14 68.9606 9.18ZM65.2606 2.84C63.6406 2.84 62.5806 4.44 62.5806 6.48C62.5806 6.84 62.6006 7.18 62.6606 7.5L67.1206 5.9C67.4606 5.76 67.6006 5.54 67.6006 5.2C67.6006 4.3 66.6406 2.84 65.2606 2.84ZM75.643 12.2C72.863 12.2 70.643 10.04 70.643 7.14C70.643 4.14 72.843 2.22 75.563 2.2C77.743 2.18 79.463 3.56 79.463 4.68C79.463 5.08 79.223 5.4 78.663 5.38C77.503 5.34 77.523 2.86 75.243 2.84C73.583 2.84 72.403 4.38 72.403 6.36C72.403 9.16 73.983 10.94 76.203 10.94C77.603 10.94 78.523 10.06 78.983 9.06C79.143 8.76 79.643 8.82 79.563 9.22C79.283 10.68 77.963 12.2 75.643 12.2ZM85.8221 2.2C87.0221 2.2 87.6621 2.9 87.6621 3.74C87.6621 4.26 87.4221 4.68 86.8621 4.68C85.8221 4.68 86.3221 3.28 85.0821 3.28C83.9821 3.28 83.3821 4.54 83.3821 6.04V10.6C83.3821 11.3 84.2221 11.32 84.2221 11.68V11.76C84.2221 11.92 84.0821 12 83.8221 12H81.3421C81.0821 12 80.9421 11.92 80.9421 11.76V11.68C80.9421 11.32 81.6821 11.3 81.6821 10.6V4.52C81.6821 3.76 80.8821 3.74 80.8821 3.36V3.32C80.8821 3.18 81.0021 3.06 81.1821 2.96L82.7021 2.28C83.0821 2.1 83.2221 2.26 83.2221 2.56V4.16C83.6621 2.88 84.5821 2.2 85.8221 2.2ZM96.3435 9.18C96.5235 8.9 96.9835 8.96 96.9235 9.34C96.6835 10.54 95.3635 12.2 92.8635 12.2C90.2835 12.2 88.2235 10.24 88.2235 7.12C88.2235 4.3 90.2835 2.2 92.9435 2.2C95.3435 2.2 96.6635 3.78 96.6635 5.16C96.6635 5.8 96.3235 6.14 95.7235 6.34L90.1835 8.16C90.6435 9.88 91.8635 10.92 93.4835 10.92C94.9635 10.92 95.9035 10.14 96.3435 9.18ZM92.6435 2.84C91.0235 2.84 89.9635 4.44 89.9635 6.48C89.9635 6.84 89.9835 7.18 90.0435 7.5L94.5035 5.9C94.8435 5.76 94.9835 5.54 94.9835 5.2C94.9835 4.3 94.0235 2.84 92.6435 2.84ZM101.786 12.2C100.246 12.2 99.2058 11.22 99.2058 9.18V3.2H97.8858C97.7058 3.2 97.5858 3.08 97.5858 2.9V2.7C97.5858 2.52 97.6858 2.4 97.8858 2.4H98.6058C99.5658 2.4 100.026 1.64 100.126 0.499999C100.146 0.24 100.286 0.0999994 100.466 0.0999994H100.666C100.906 0.0999994 100.986 0.24 100.986 0.499999L101.006 2.4H103.766C103.926 2.4 104.066 2.54 104.066 2.7V2.9C104.066 3.08 103.926 3.2 103.766 3.2H101.006V9.2C101.006 10.3 101.526 10.88 102.266 10.88C103.146 10.88 103.666 10.36 103.746 9.68C103.866 9.38 104.346 9.4 104.346 9.76C104.346 11 103.386 12.2 101.786 12.2ZM109.255 12.18C106.595 12.18 105.195 10.84 105.195 9.9C105.195 9.42 105.515 9.16 105.975 9.16C107.215 9.16 106.575 11.6 109.255 11.6C110.535 11.6 111.535 10.98 111.535 9.84C111.535 6.9 105.415 8.88 105.415 4.94C105.415 3.4 106.975 2.2 109.175 2.2C111.655 2.2 113.075 3.48 113.075 4.56C113.075 4.96 112.755 5.26 112.355 5.26C111.215 5.26 111.715 2.82 109.255 2.82C108.095 2.82 107.195 3.56 107.195 4.56C107.195 7.44 113.295 5.48 113.295 9.48C113.295 10.98 111.735 12.18 109.255 12.18Z" fill="#D9C8B8"/>
</svg>
